#!OML:ASF F:\VICON\USERDATA\INSTALL\rory3\rory3.ASF
:FULLY-SPECIFIED
:DEGREES
361
root 1.53799 18.0746 -17.8871 -158.997 -20.9949 -190.58
lowerback -6.68711 -7.03557 -6.84043
upperback -7.58847 -10.0399 -1.65311
thorax -3.42524 -5.12796 1.63833
lowerneck -19.897 2.98793 -0.516455
upperneck 37.2299 1.85551 -0.376978
head 16.8425 -0.447905 -0.0338077
rclavicle -6.13639e-014 -4.72114e-014
rhumerus -41.525 -27.5022 6.86993
rradius 17.7751
rwrist 1.72131
rhand -11.1246 2.36679
rfingers 7.12502
rthumb 14.9005 -27.0773
lclavicle -6.13639e-014 -4.72114e-014
lhumerus 7.1058 -21.0031 24.4163
lradius 22.1511
lwrist -40.6738
lhand -5.55084 25.7972
lfingers 7.12502
lthumb 20.2641 54.7601
rfemur -48.9535 -9.66785 10.6932
rtibia 51.9169
rfoot 26.2596 -18.854
rtoes 17.801
lfemur -1.46832 -4.08488 -6.38892
ltibia 40.5411
lfoot 2.28314 27.7426
ltoes 9.1845
362
root 1.55157 17.7402 -18.0176 -159.319 -21.2309 -190.604
lowerback -5.71574 -6.92854 -6.13872
upperback -8.10846 -10.1081 -1.81725
thorax -4.65174 -5.17319 1.29829
lowerneck -18.7315 3.14398 -0.77127
upperneck 37.1426 2.01826 -0.278975
head 16.4993 -0.445206 0.0685663
rclavicle -6.46796e-014 -2.33572e-014
rhumerus -42.5319 -28.7808 7.11843
rradius 17.0901
rwrist 3.97034
rhand -10.6018 2.0375
rfingers 7.12502
rthumb 15.404 -27.3686
lclavicle -6.46796e-014 -2.33572e-014
lhumerus 3.26932 -21.3214 26.9202
lradius 22.6585
lwrist -40.7081
lhand -6.00798 24.9928
lfingers 7.12502
lthumb 19.8247 54.0018
rfemur -46.5369 -9.038 11.8501
rtibia 52.396
rfoot 13.822 -17.535
rtoes 18.0955
lfemur -2.98054 -3.37444 -6.87474
ltibia 42.461
lfoot -0.762008 27.7537
ltoes 6.83521
363
root 1.59256 17.3835 -18.1666 -159.081 -20.5913 -191.683
lowerback -6.00167 -6.89905 -7.48572
upperback -7.48242 -9.89392 -1.91392
thorax -3.65355 -5.01893 1.80961
lowerneck -20.1145 3.05598 -1.25099
upperneck 36.7748 2.43639 -0.424081
head 16.641 -0.267916 0.207863
rclavicle 6.90288e-014 4.92489e-014
rhumerus -46.2142 -37.6746 12.9493
rradius 15.4146
rwrist 13.2031
rhand -9.41657 2.58782
rfingers 7.12502
rthumb 16.5454 -26.7268
lclavicle 6.90288e-014 4.92489e-014
lhumerus 0.674644 -19.9594 29.1693
lradius 22.8307
lwrist -40.5202
lhand -6.72731 24.1899
lfingers 7.12502
lthumb 19.1331 53.2688
rfemur -44.4873 -8.79513 12.3596
rtibia 53.4073
rfoot 4.10213 -14.9659
rtoes -0.517419
lfemur -4.37075 -2.40191 -8.66565
ltibia 44.3356
lfoot -6.43747 28.1398
ltoes 9.51275
364
root 1.5928 17.1734 -18.3613 -159.272 -21.0686 -191.437
lowerback -5.79227 -6.98127 -6.18238
upperback -7.50403 -10.0574 -2.02805
thorax -3.99261 -5.14772 1.04096
lowerneck -19.8775 3.31 -1.13261
upperneck 36.3396 2.93411 -0.631381
head 16.3634 -0.0428734 0.200689
rclavicle 1.25816e-013 1.32192e-014
rhumerus -42.202 -27.3018 2.10126
rradius 17.1261
rwrist 0.544871
rhand -9.54455 0.177165
rfingers 7.12502
rthumb 16.4222 -29.1477
lclavicle 1.25816e-013 1.32192e-014
lhumerus -2.76847 -20.505 30.9856
lradius 22.9145
lwrist -39.4026
lhand -6.91252 24.1981
lfingers 7.12502
lthumb 18.955 53.2945
rfemur -43.1438 -8.09678 13.2129
rtibia 54.3816
rfoot -5.95149 -17.4924
rtoes 2.86124
lfemur -5.45719 -1.78442 -8.94458
ltibia 45.7207
lfoot -12.0445 28.101
ltoes 13.216
365
root 1.60272 16.9015 -18.5204 -159.157 -21.6374 -190.784
lowerback -6.96364 -7.0613 -4.74398
upperback -6.56665 -9.93946 -2.04339
thorax -2.57369 -5.14804 0.024881
lowerneck -20.6273 3.23818 -0.991553
upperneck 34.997 3.28229 -0.931707
head 15.8819 0.241243 0.165334
rclavicle 1.10791e-014 2.37548e-014
rhumerus -42.7417 -28.5088 0.253555
rradius 17.2483
rwrist 0.20723
rhand -8.61447 -0.047493
rfingers 7.12502
rthumb 17.3175 -29.296
lclavicle 1.10791e-014 2.37548e-014
lhumerus -4.68553 -19.0313 32.5247
lradius 22.6545
lwrist -39.4651
lhand -7.02471 24.4652
lfingers 7.12502
lthumb 18.8471 53.5722
rfemur -42.6025 -7.46093 14.6039
rtibia 55.3961
rfoot -13.7756 -19.7356
rtoes 2.50644
lfemur -7.47073 -1.05417 -8.63383
ltibia 47.4861
lfoot -15.5148 28.3441
ltoes 12.681
366
root 1.68115 16.5808 -18.666 -158.307 -20.4222 -192.697
lowerback -6.03343 -6.75603 -7.0614
upperback -7.58426 -9.81453 -2.57017
thorax -3.93538 -5.03539 0.939416
lowerneck -18.2758 3.48155 -1.35251
upperneck 34.3865 3.43871 -0.512351
head 15.0138 0.303371 0.398114
rclavicle -7.56337e-014 -4.35338e-014
rhumerus -44.1875 -30.6145 1.86131
rradius 16.1174
rwrist 4.03445
rhand -8.38786 -0.0255956
rfingers 7.12502
rthumb 17.5356 -29.2547
lclavicle -7.56337e-014 -4.35338e-014
lhumerus -8.84798 -19.8952 34.9379
lradius 22.2257
lwrist -39.9747
lhand -8.27881 24.3505
lfingers 7.12502
lthumb 17.6406 53.5703
rfemur -42.4585 -4.69982 12.8075
rtibia 56.3039
rfoot -21.4393 -22.5697
rtoes 8.71717
lfemur -9.44402 0.0283539 -11.2943
ltibia 49.449
lfoot -18.524 28.6245
ltoes 10.2289
367
root 1.68321 16.2903 -18.823 -157.814 -20.8102 -192.837
lowerback -6.72664 -6.93078 -6.5627
upperback -6.84656 -9.82545 -2.46525
thorax -2.8131 -5.06052 0.616514
lowerneck -20.1076 3.41873 -1.76908
upperneck 33.7479 3.8995 -0.556399
head 15.1239 0.560246 0.58996
rclavicle 9.0343e-014 3.91606e-014
rhumerus -46.8248 -38.8693 6.40046
rradius 14.4751
rwrist 11.4744
rhand -8.8317 -0.501513
rfingers 7.12502
rthumb 17.1084 -29.7682
lclavicle 9.0343e-014 3.91606e-014
lhumerus -10.7959 -17.9715 36.8757
lradius 21.0765
lwrist -40.5068
lhand -8.67236 24.8151
lfingers 7.12502
lthumb 17.2618 54.0684
rfemur -41.7737 -3.9855 13.1509
rtibia 56.6387
rfoot -28.17 -24.7849
rtoes 12.1611
lfemur -11.9352 0.634128 -11.8395
ltibia 52.0948
lfoot -20.9413 28.5943
ltoes 11.023
368
root 1.69943 16.0207 -18.9614 -157.4 -21.0818 -191.45
lowerback -6.86605 -6.60431 -4.51851
upperback -7.58822 -9.57408 -2.25727
thorax -3.79849 -5.01639 -0.177207
lowerneck -19.4787 3.71641 -2.00366
upperneck 33.9155 4.23534 -0.283658
head 15.0367 0.679746 0.788303
rclavicle -9.16964e-014 -4.08502e-014
rhumerus -51.5613 -44.5246 12.9521
rradius 13.2361
rwrist 20.1463
rhand -8.4919 -0.391328
rfingers 7.12502
rthumb 17.4355 -29.6294
lclavicle -9.16964e-014 -4.08502e-014
lhumerus -14.2157 -18.7654 38.7783
lradius 20.2514
lwrist -40.7158
lhand -7.77856 25.1116
lfingers 7.12502
lthumb 18.1219 54.2874
rfemur -42.0809 -2.25329 14.9011
rtibia 57.1592
rfoot -35.0911 -26.8603
rtoes 16.4901
lfemur -15.0863 1.82889 -10.8702
ltibia 54.9365
lfoot -23.5173 27.8878
ltoes 13.1051
369
root 1.72313 15.7667 -19.0759 -156.914 -20.937 -189.479
lowerback -7.20417 -5.94122 -2.10636
upperback -8.21186 -8.85199 -2.01
thorax -4.58594 -4.78223 -1.15961
lowerneck -19.0453 3.7023 -2.2096
upperneck 34.1031 4.07728 0.0810158
head 15.0072 0.614649 0.935066
rclavicle 4.13565e-014 -1.26228e-014
rhumerus -54.3248 -46.344 15.6175
rradius 12.7087
rwrist 24.1279
rhand -7.69549 -0.711744
rfingers 7.12502
rthumb 18.2018 -29.8801
lclavicle 4.13565e-014 -1.26228e-014
lhumerus -17.1012 -19.7751 40.3577
lradius 19.6219
lwrist -40.4554
lhand -6.49518 25.3831
lfingers 7.12502
lthumb 19.3563 54.4397
rfemur -43.1743 -0.100576 16.9373
rtibia 57.9679
rfoot -38.1617 -28.2095
rtoes 15.407
lfemur -18.7415 3.62518 -9.53855
ltibia 58.0762
lfoot -25.4686 27.2713
ltoes 15.3775
370
root 1.72762 15.6204 -19.1924 -156.381 -20.02 -187.8
lowerback -9.31692 -5.51055 -1.00193
upperback -6.54756 -7.92988 -1.16352
thorax -1.66351 -4.25291 -1.23944
lowerneck -22.9285 3.39024 -3.2034
upperneck 33.9771 4.54712 0.228811
head 15.8043 0.83088 1.36766
rclavicle 7.07044e-014 -6.44808e-015
rhumerus -59.4713 -53.3409 21.6584
rradius 11.9874
rwrist 30.1809
rhand -6.82988 -0.751848
rfingers 7.12502
rthumb 19.0344 -29.8405
lclavicle 7.07044e-014 -6.44808e-015
lhumerus -17.1862 -15.0047 41.4333
lradius 18.5869
lwrist -41.7577
lhand -4.84766 25.5779
lfingers 7.12502
lthumb 20.9398 54.4676
rfemur -45.6114 1.00969 18.7733
rtibia 59.9532
rfoot -37.96 -28.7765
rtoes 16.4234
lfemur -22.079 5.43863 -9.19529
ltibia 61.1467
lfoot -27.6546 26.3704
ltoes 14.0987
371
root 1.70133 15.4393 -19.2823 -155.403 -18.4756 -186.707
lowerback -8.61864 -4.34778 0.576919
upperback -8.2799 -6.78955 -1.37837
thorax -4.06141 -3.87343 -2.04166
lowerneck -21.1267 3.68307 -3.18777
upperneck 34.5829 4.48699 0.608611
head 15.6606 0.76204 1.46085
rclavicle 5.46844e-014 2.18663e-014
rhumerus -56.4114 -49.6605 17.0728
rradius 12.0548
rwrist 29.2528
rhand -6.01397 -0.817053
rfingers 7.12502
rthumb 19.8189 -29.8266
lclavicle 5.46844e-014 2.18663e-014
lhumerus -21.5363 -15.1716 42.6978
lradius 18.2148
lwrist -42.4839
lhand -4.69368 25.9969
lfingers 7.12502
lthumb 21.0877 54.8702
rfemur -48.7307 1.51833 19.8427
rtibia 62.5393
rfoot -37.5038 -28.4968
rtoes 14.6837
lfemur -25.8249 7.07999 -9.91766
ltibia 64.4405
lfoot -28.1952 27.6345
ltoes 15.5172
372
root 1.6433 15.2526 -19.3207 -156.024 -18.3293 -183.346
lowerback -8.1512 -3.40081 4.70466
upperback -8.13889 -5.6422 -0.921188
thorax -4.48215 -3.46621 -3.76217
lowerneck -21.3022 3.59717 -2.94075
upperneck 33.9914 4.49312 0.35114
head 15.4362 0.830088 1.32025
rclavicle -3.05631e-015 -8.29926e-015
rhumerus -53.5254 -47.6535 11.8836
rradius 12.3188
rwrist 26.8179
rhand -5.81813 -1.10537
rfingers 7.12502
rthumb 20.0072 -30.0953
lclavicle -3.05631e-015 -8.29926e-015
lhumerus -23.8577 -13.8687 43.5118
lradius 17.6231
lwrist -42.7893
lhand -5.34592 26.4877
lfingers 7.12502
lthumb 20.461 55.4296
rfemur -50.0784 1.98711 23.4457
rtibia 64.725
rfoot -37.9748 -28.0393
rtoes 13.7731
lfemur -29.3031 8.13268 -7.74874
ltibia 68.2552
lfoot -29.2021 27.4647
ltoes 14.3745
373
root 1.59269 15.0867 -19.3852 -156.38 -17.1372 -183.07
lowerback -8.03849 -2.84303 4.90004
upperback -6.80672 -4.69867 -0.911667
thorax -3.0476 -2.84517 -3.90019
lowerneck -23.4868 3.21325 -3.13743
upperneck 33.2306 4.62518 -0.171653
head 15.5932 0.909449 1.22386
rclavicle -4.67594e-014 -6.79595e-015
rhumerus -51.6267 -48.1992 8.71074
rradius 12.3643
rwrist 25.7441
rhand -5.63073 -1.09916
rfingers 7.12502
rthumb 20.1873 -30.0702
lclavicle -4.67594e-014 -6.79595e-015
lhumerus -24.896 -11.372 44.5379
lradius 17.0426
lwrist -43.5697
lhand -5.35613 26.9885
lfingers 7.12502
lthumb 20.4512 55.9314
rfemur -50.6402 2.51949 23.3523
rtibia 66.7486
rfoot -38.9876 -27.2448
rtoes 14.6271
lfemur -31.633 8.38609 -9.12099
ltibia 71.5284
lfoot -31.217 27.3039
ltoes 13.1074
374
root 1.53829 14.9461 -19.4321 -156.563 -16.1312 -181.428
lowerback -8.63828 -2.0655 6.35349
upperback -5.54453 -3.65413 -0.48048
thorax -1.35494 -2.21436 -4.31018
lowerneck -24.8083 2.8937 -3.29203
upperneck 32.118 4.75169 -0.777359
head 15.3887 0.975214 1.05768
rclavicle 3.75827e-014 -6.85807e-015
rhumerus -48.8787 -48.7304 5.19839
rradius 12.1085
rwrist 25.1378
rhand -5.63539 -0.844362
rfingers 7.12502
rthumb 20.1828 -29.8159
lclavicle 3.75827e-014 -6.85807e-015
lhumerus -25.8411 -7.31434 45.1197
lradius 16.2892
lwrist -46.5696
lhand -5.2163 27.144
lfingers 7.12502
lthumb 20.5856 56.0725
rfemur -51.5637 3.49381 24.562
rtibia 67.9423
rfoot -38.899 -26.9321
rtoes 13.9611
lfemur -34.9566 9.3607 -9.15521
ltibia 74.8584
lfoot -32.6558 27.0231
ltoes 14.2573
